<?xml version="1.0" standalone="no"?>
<!DOCTYPE svg PUBLIC "-//W3C//DTD SVG 20010904//EN"
 "http://www.w3.org/TR/2001/REC-SVG-20010904/DTD/svg10.dtd">
<svg version="1.0" xmlns="http://www.w3.org/2000/svg"
 width="2000.000000pt" height="2000.000000pt" viewBox="0 0 2000.000000 2000.000000"
 preserveAspectRatio="xMidYMid meet">
<metadata>
Created by potrace 1.14, written by Peter Selinger 2001-2017
</metadata>
<g transform="translate(0.000000,2000.000000) scale(0.100000,-0.100000)"
fill="#000000" stroke="none">
<path d="M26 19953 c8 -21 25 -60 36 -88 11 -27 26 -63 33 -80 7 -16 53 -122
100 -235 48 -113 93 -218 101 -235 7 -16 41 -95 74 -175 34 -80 67 -158 75
-175 13 -30 126 -294 150 -350 7 -16 18 -43 25 -60 20 -47 106 -247 128 -296
11 -24 31 -71 45 -104 34 -82 305 -710 327 -760 10 -22 37 -85 60 -140 23 -55
53 -123 66 -152 13 -28 24 -54 24 -57 0 -3 11 -29 24 -58 13 -29 38 -87 56
-128 18 -41 40 -93 50 -115 80 -183 130 -303 130 -313 0 -7 5 -12 10 -12 6 0
10 -6 10 -12 0 -12 51 -136 101 -243 10 -22 53 -121 95 -220 73 -172 86 -202
132 -305 11 -25 39 -90 62 -145 23 -55 48 -113 56 -130 66 -146 174 -402 174
-412 0 -7 5 -13 10 -13 6 0 10 -5 10 -12 0 -7 25 -71 56 -143 68 -156 76 -174
107 -245 13 -30 73 -167 132 -305 59 -137 123 -286 142 -330 51 -115 64 -144
133 -305 70 -162 95 -221 115 -265 15 -36 53 -122 65 -150 27 -66 44 -105 60
-140 10 -22 33 -74 50 -115 18 -41 43 -99 56 -128 13 -29 24 -55 24 -57 0 -2
12 -30 26 -62 44 -99 264 -607 374 -863 32 -74 65 -151 73 -170 51 -114 69
-156 111 -255 26 -60 53 -123 61 -140 7 -16 20 -46 28 -65 41 -95 311 -720
325 -750 9 -19 17 -37 17 -40 1 -3 7 -16 13 -30 7 -14 45 -102 85 -195 69
-161 73 -172 61 -200 -59 -132 -79 -177 -132 -300 -33 -77 -106 -246 -162
-375 -209 -483 -250 -579 -250 -589 0 -6 -4 -11 -10 -11 -5 0 -10 -6 -10 -14
0 -8 -13 -43 -29 -78 -16 -35 -48 -108 -71 -163 -24 -55 -54 -125 -67 -155
-38 -84 -46 -101 -133 -305 -44 -104 -85 -199 -90 -210 -47 -106 -71 -160
-126 -289 -36 -82 -71 -163 -79 -180 -15 -35 -95 -218 -162 -376 -25 -58 -56
-129 -69 -158 -13 -29 -24 -54 -24 -57 0 -2 -13 -32 -30 -67 -25 -56 -50 -112
-55 -128 -3 -7 -20 -48 -50 -115 -30 -68 -42 -94 -80 -185 -15 -36 -37 -87
-50 -115 -22 -49 -37 -85 -39 -95 -1 -3 -4 -9 -7 -15 -4 -5 -33 -71 -64 -145
-54 -127 -81 -189 -125 -285 -9 -22 -37 -85 -60 -140 -23 -55 -53 -122 -65
-150 -13 -27 -42 -95 -65 -150 -24 -55 -52 -120 -63 -145 -11 -25 -42 -97 -69
-160 -27 -63 -58 -133 -68 -155 -10 -22 -59 -137 -110 -255 -51 -118 -105
-243 -121 -278 -16 -34 -29 -69 -29 -77 0 -8 -4 -15 -10 -15 -5 0 -10 -6 -10
-14 0 -8 -16 -49 -35 -90 -19 -42 -35 -78 -35 -81 0 -4 -29 -72 -60 -140 -27
-58 -133 -303 -169 -390 -24 -55 -59 -136 -78 -180 -20 -44 -41 -93 -48 -110
-37 -87 -199 -465 -213 -495 -9 -19 -17 -37 -17 -40 -1 -3 -11 -27 -24 -55
-13 -27 -27 -59 -31 -70 -5 -11 -19 -42 -31 -70 -11 -27 -27 -63 -34 -80 -7
-16 -24 -55 -37 -85 -14 -30 -29 -66 -33 -80 -4 -14 -11 -29 -15 -35 -4 -5
-38 -82 -75 -170 -37 -88 -78 -182 -90 -210 -13 -27 -35 -79 -50 -115 -28 -67
-54 -126 -85 -195 -10 -22 -37 -85 -60 -140 -23 -55 -50 -118 -60 -140 -10
-22 -30 -69 -45 -105 -15 -36 -37 -87 -50 -115 -61 -137 -185 -433 -185 -443
0 -7 -4 -12 -10 -12 -5 0 -10 -6 -10 -14 0 -8 -13 -43 -29 -78 -26 -59 -42
-96 -46 -108 -1 -3 -9 -23 -19 -45 -43 -97 -49 -116 -38 -127 7 -7 82 25 244
103 284 138 10208 5101 12203 6103 6320 3175 7526 3783 7532 3802 1 5 -17 18
-40 30 -23 11 -465 233 -982 494 -517 260 -3109 1557 -5760 2882 -2651 1325
-4827 2413 -4835 2418 -25 13 -505 254 -510 255 -3 1 -842 419 -1865 929
-4013 2003 -5953 2966 -5975 2966 -6 0 -4 -15 6 -37z"/>
</g>
</svg>
